<?xml version="1.0" encoding="utf-8"?>
<!-- Generator: Adobe Illustrator 17.0.0, SVG Export Plug-In . SVG Version: 6.00 Build 0)  -->
<!DOCTYPE svg PUBLIC "-//W3C//DTD SVG 1.1//EN" "http://www.w3.org/Graphics/SVG/1.1/DTD/svg11.dtd">
<svg version="1.1" id="Vrstva_1" xmlns="http://www.w3.org/2000/svg" xmlns:xlink="http://www.w3.org/1999/xlink" x="0px" y="0px"
	 width="138.898px" height="65.197px" viewBox="0 0 138.898 65.197" enable-background="new 0 0 138.898 65.197"
	 xml:space="preserve">
<g>
	<g>
		<path fill="#00A5BB" d="M14.635,0.866h13.686l-0.532,3.726H16.041l-0.456,3.079c2.23,0.558,4.068,1.065,5.512,1.521
			c1.445,0.456,2.591,0.868,3.441,1.235c0.849,0.368,1.432,0.691,1.749,0.97c0.317,0.279,0.462,0.52,0.437,0.722l-0.799,5.588
			c-0.355,2.408-2.37,3.612-6.045,3.612H6.195l0.532-3.726h11.786l0.456-3.422c-3.929-0.836-6.786-1.647-8.573-2.433
			c-1.787-0.785-2.655-1.381-2.604-1.787l0.761-5.36C8.906,2.108,10.934,0.866,14.635,0.866z"/>
		<path fill="#00A5BB" d="M49.915,17.632c-0.38,2.459-2.446,3.688-6.197,3.688h-9.201c-1.85,0-3.219-0.304-4.106-0.912
			c-0.887-0.608-1.229-1.533-1.026-2.776l2.357-16.766h7.451l-2.357,16.728h5.627l2.357-16.728h7.451L49.915,17.632z"/>
		<path fill="#00A5BB" d="M60.94,0.866l8.288,10.379L70.71,0.866h7.452L75.843,17.29c-0.152,0.659-0.393,1.235-0.722,1.73
			c-0.33,0.495-0.729,0.913-1.198,1.255c-0.469,0.342-0.988,0.602-1.559,0.779c-0.57,0.178-1.16,0.266-1.768,0.266h-0.799
			l-8.174-9.847l-1.369,9.847h-7.451l2.889-20.454H60.94z"/>
	</g>
	<g>
		<path fill="#F7A600" d="M33.992,55.128c2.719-1.87,5.474-3.758,8.424-5.374c-2.52,0.562-5.009,1.199-7.48,1.832
			c-10.949,2.807-21.319,5.444-32.902,0.834l-1.325,9.522c4.505,1.549,8.816,2.255,12.981,2.389
			C21.715,63.551,27.71,59.449,33.992,55.128z"/>
		<path fill="#F7A600" d="M56.118,47.921c-8.235,0.673-14.334,4.847-20.726,9.243c-3.216,2.211-6.483,4.449-10.064,6.229
			c4.058-0.709,8.021-1.712,11.937-2.716c11.393-2.921,22.154-5.68,34.313-0.26l0.415-0.932l1.191-8.557
			C67.184,48.602,61.535,47.821,56.118,47.921z"/>
	</g>
	<g>
		<path fill="#00A5BB" d="M11.706,24.842h13.686l-0.532,3.726H13.113l-0.456,3.079c2.23,0.558,4.068,1.065,5.512,1.521
			c1.445,0.456,2.592,0.868,3.441,1.235c0.849,0.368,1.432,0.691,1.749,0.97c0.316,0.279,0.462,0.52,0.436,0.722l-0.798,5.588
			c-0.356,2.408-2.371,3.612-6.045,3.612H3.266l0.532-3.726h11.786l0.456-3.422c-3.929-0.836-6.786-1.647-8.573-2.433
			c-1.787-0.785-2.655-1.381-2.604-1.787l0.761-5.36C5.978,26.084,8.005,24.842,11.706,24.842z"/>
		<path fill="#00A5BB" d="M34.706,35.905h5.626l0.761-5.475h7.451l-2.091,14.865h-7.451l0.799-5.665h-5.627l-0.798,5.665h-7.452
			l2.357-16.766c0.177-1.242,0.792-2.167,1.844-2.775c1.052-0.608,2.503-0.913,4.353-0.913h14.865l-0.533,3.726H35.733
			L34.706,35.905z"/>
		<path fill="#00A5BB" d="M52.765,24.842h7.451l-2.889,20.454h-7.452L52.765,24.842z"/>
		<path fill="#00A5BB" d="M63.638,24.842h7.451l-2.357,16.728h6.387l-0.533,3.726h-8.173c-1.851,0-3.219-0.304-4.106-0.912
			c-0.887-0.608-1.229-1.533-1.026-2.776L63.638,24.842z"/>
		<path fill="#00A5BB" d="M80.898,24.842h7.451L85.46,45.295h-7.452L80.898,24.842z"/>
		<path fill="#00A5BB" d="M97.016,24.842l8.288,10.379l1.482-10.379h7.452l-2.32,16.424c-0.152,0.659-0.393,1.235-0.722,1.73
			c-0.329,0.495-0.729,0.913-1.197,1.255c-0.469,0.342-0.988,0.602-1.559,0.779c-0.57,0.178-1.16,0.266-1.768,0.266h-0.799
			L97.7,35.449l-1.368,9.847h-7.452l2.89-20.454H97.016z"/>
		<path fill="#00A5BB" d="M129.673,32.255h7.452l-1.293,9.352c-0.381,2.459-2.446,3.688-6.197,3.688h-9.2
			c-1.851,0-3.219-0.304-4.106-0.912c-0.887-0.608-1.229-1.533-1.026-2.776l1.824-13.078c0.177-1.242,0.792-2.167,1.844-2.775
			c1.052-0.608,2.503-0.913,4.353-0.913h14.865l-0.533,3.726h-13.077l-1.825,13.002h5.627L129.673,32.255z"/>
	</g>
</g>
</svg>
